PathFileType	4	(X/Y/Z)	D:\Vicon data\Senior Design EMG regression\Subject 1- Steven\Session 1\steven - static trial01.trc
DataRate	CameraRate	NumFrames	NumMarkers	Units	OrigDataRate	OrigDataStartFrame	OrigNumFrames
100.0	100.0	4	60	mm	100.0	219	582	
Frame#	Time	HEAD			C7			CLAV			STUR			LSHO			LHAR2			LHME			LRAH			LRAD			LULN			LMCM			RSHO			RHAR2			RHME			RRAH			RRAD			RULN			RMCM			LASI			RASI			LPSI			RPSI			LLAT			LLFC			LKNE			LLAN			LHEE			LTOE			RLAT			RLFC			RKNE			RLAN			RHEE			RTOE			RSMT			RMAN			LSMT			LMAN			RSAT1			RSAT			RMFC			LSAT1			LSAT			LMFC			BARB			RHAR1			RHGT			RHHB			RHHF			RHLE			RMCR			RMCA			RMCI			LHHF			LHHB			LHGT			LHAR1			LHLE			LMCR			LMCI			
		X1	Y1	Z1	X2	Y2	Z2	X3	Y3	Z3	X4	Y4	Z4	X5	Y5	Z5	X6	Y6	Z6	X7	Y7	Z7	X8	Y8	Z8	X9	Y9	Z9	X10	Y10	Z10	X11	Y11	Z11	X12	Y12	Z12	X13	Y13	Z13	X14	Y14	Z14	X15	Y15	Z15	X16	Y16	Z16	X17	Y17	Z17	X18	Y18	Z18	X19	Y19	Z19	X20	Y20	Z20	X21	Y21	Z21	X22	Y22	Z22	X23	Y23	Z23	X24	Y24	Z24	X25	Y25	Z25	X26	Y26	Z26	X27	Y27	Z27	X28	Y28	Z28	X29	Y29	Z29	X30	Y30	Z30	X31	Y31	Z31	X32	Y32	Z32	X33	Y33	Z33	X34	Y34	Z34	X35	Y35	Z35	X36	Y36	Z36	X37	Y37	Z37	X38	Y38	Z38	X39	Y39	Z39	X40	Y40	Z40	X41	Y41	Z41	X42	Y42	Z42	X43	Y43	Z43	X44	Y44	Z44	X45	Y45	Z45	X46	Y46	Z46	X47	Y47	Z47	X48	Y48	Z48	X49	Y49	Z49	X50	Y50	Z50	X51	Y51	Z51	X52	Y52	Z52	X53	Y53	Z53	X54	Y54	Z54	X55	Y55	Z55	X56	Y56	Z56	X57	Y57	Z57	X58	Y58	Z58	X59	Y59	Z59	X60	Y60	Z60	
219	2.18	-73.826874	1645.7572	-330.23453	-65.676521	1452.7146	-136.23666	-66.861511	1399.6842	-274.12958	-73.347115	1254.0641	-316.23218	-181.74835	1469.8385	-183.92542	-357.62988	1449.5409	-196.03874	-476.88303	1352.9154	-181.70816	-454.32483	1425.897	-272.23257	-477.09491	1401.2228	-412.39413	-535.7049	1427.9442	-405.48862	-510.48697	1416.3798	-501.28354	53.372349	1460.1064	-173.5184	212.84796	1441.6124	-188.13751	347.86765	1340.494	-183.10223	299.9592	1419.4327	-264.64706	292.71674	1394.8162	-410.66785	353.1832	1431.405	-409.74619	320.51163	1430.0411	-501.28131	-193.4649	965.36871	-305.7662	71.951706	994.34949	-282.75137	-132.26628	987.09167	-157.75598	-21.763069	987.99609	-145.58609	-215.58411	607.35309	-276.82083	-203.03897	501.92337	-240.847	-161.44322	474.4212	-279.23383	-181.33887	93.543556	-174.15056	-134.55775	68.597076	-111.95026	-145.20158	49.371883	-372.31012	115.94648	683.86346	-271.17657	93.569054	502.74313	-249.75816	41.645199	477.68066	-295.21231	88.368301	104.51448	-188.91272	40.031681	63.554749	-119.33505	52.187984	47.173481	-383.08148	118.49259	40.306236	-336.87918	3.0247927	121.41973	-195.61749	-210.29051	43.635395	-323.37106	-101.54583	127.06728	-197.46973	87.995224	766.93121	-334.83072	44.026001	640.22839	-325.00275	-10.762425	491.02338	-240.35303	-207.44688	766.42987	-332.55331	-158.40259	631.68744	-323.72452	-107.39608	488.12372	-226.23335	-8.052413	1285.6372	-86.190651	267.6163	1424.4111	-148.28825	134.30605	1459.1997	-162.64908	81.146515	1442.6672	-122.1534	76.440285	1447.3502	-228.17996	358.34888	1422.2203	-176.58783	344.88391	1426.1323	-494.56348	356.8558	1420.299	-454.62735	298.81458	1422.389	-505.99539	-210.17181	1457.0823	-231.90239	-216.12909	1452.4066	-138.30107	-300.62253	1465.1382	-156.55136	-412.52524	1438.8301	-150.50172	-494.95111	1433.2406	-175.66457	-536.4494	1412.2035	-494.83972	-491.85483	1414.0956	-504.52005
220	2.19	-73.84008	1645.7257	-330.24649	-65.669426	1452.6614	-136.20422	-66.860901	1399.6609	-274.09457	-73.327339	1254.027	-316.20895	-181.76591	1469.8052	-183.9182	-357.63437	1449.5081	-196.01952	-476.92844	1352.762	-181.6286	-454.29062	1425.9722	-272.24609	-477.09653	1401.2324	-412.38809	-535.73407	1427.9495	-405.47955	-510.52713	1416.4044	-501.29337	53.370121	1460.0596	-173.46945	212.87541	1441.5565	-188.10675	347.86993	1340.418	-183.06934	299.97421	1419.3585	-264.65353	292.76212	1394.8063	-410.69507	353.20505	1431.3647	-409.72827	320.48993	1429.9087	-500.99527	-193.45312	965.34875	-305.78741	71.929993	994.30927	-282.73633	-132.26303	987.04785	-157.7542	-21.758741	987.94324	-145.59242	-215.5932	607.33789	-276.83362	-203.06398	501.92123	-240.85489	-161.43918	474.40326	-279.246	-181.32794	93.51619	-174.17888	-134.56317	68.537971	-111.95855	-145.18529	49.337364	-372.31589	115.94937	683.8446	-271.16046	93.591217	502.73444	-249.76616	41.616165	477.65491	-295.20123	88.360947	104.48853	-188.91313	40.008942	63.499615	-119.36161	52.197708	47.155647	-383.07593	118.48483	40.261776	-336.85831	3.1635695	121.38105	-195.68581	-210.35471	43.659332	-323.38431	-101.53814	127.03967	-197.45287	87.982918	766.90137	-334.79074	44.029442	640.20508	-325.01053	-10.751171	490.99887	-240.40128	-207.46112	766.4162	-332.55264	-158.38815	631.65973	-323.7547	-107.39891	488.05914	-226.20529	-8.0744715	1285.5763	-86.183296	267.60965	1424.3546	-148.24397	134.30501	1459.1318	-162.62914	81.149773	1442.6068	-122.16105	76.448181	1447.3055	-228.15392	358.34439	1422.1461	-176.58774	344.86447	1426.0887	-494.54391	357.07443	1420.3698	-454.65875	298.80975	1422.3455	-505.95755	-210.16074	1457.0531	-231.88295	-216.13258	1452.358	-138.29564	-300.65207	1465.0999	-156.53249	-412.5303	1438.79	-150.49408	-494.93286	1433.2025	-175.65955	-536.49042	1412.1923	-494.8718	-491.87415	1414.1056	-504.58002
221	2.2	-73.84948	1645.7092	-330.16849	-65.676468	1452.6776	-136.1853	-66.857094	1399.67	-274.07278	-73.387939	1254.0277	-316.15179	-181.76218	1469.8214	-183.88747	-357.65118	1449.5206	-195.9639	-476.9848	1352.8076	-181.60857	-454.33524	1425.9456	-272.21301	-477.11353	1401.2527	-412.37085	-535.74756	1427.9727	-405.4697	-510.55527	1416.4424	-501.28055	53.362865	1460.038	-173.43596	212.86679	1441.563	-188.04567	347.83878	1340.3958	-183.05006	299.9671	1419.3762	-264.61163	292.70935	1394.7766	-410.64108	353.18332	1431.3539	-409.69379	320.49597	1429.8849	-500.91565	-193.46521	965.37512	-305.76718	71.928642	994.34369	-282.72147	-132.28055	987.07227	-157.74599	-21.661537	987.92285	-145.34776	-215.59457	607.34448	-276.84579	-203.08328	501.93811	-240.8696	-161.46031	474.41928	-279.23822	-181.31525	93.507286	-174.1721	-134.57599	68.581909	-111.94717	-145.17863	49.355377	-372.32593	115.93134	683.86127	-271.16354	93.319901	502.64401	-249.68559	41.623158	477.69016	-295.19955	88.366203	104.51649	-188.89198	40.025333	63.493042	-119.37725	52.203186	47.178749	-383.08063	118.48917	40.294857	-336.86475	3.1739335	121.39854	-195.71017	-210.29051	43.626225	-323.36087	-101.55009	127.05997	-197.45638	87.956123	766.93744	-334.77603	44.004864	640.21442	-324.99554	-10.760322	490.99066	-240.3358	-207.47252	766.40613	-332.54419	-158.42206	631.67633	-323.76202	-107.42564	488.10037	-226.21864	-8.0968285	1285.5881	-86.137482	267.61313	1424.3105	-148.20755	134.34126	1459.1271	-162.53163	81.146759	1442.6318	-122.08472	76.440605	1447.3268	-228.1183	358.34311	1422.1259	-176.55499	344.87747	1426.0604	-494.5209	357.11017	1420.3833	-454.63882	298.80972	1422.3267	-505.92285	-210.15977	1457.0629	-231.84218	-216.14557	1452.3776	-138.25508	-300.67429	1465.1035	-156.48857	-412.54059	1438.791	-150.46584	-494.95285	1433.2369	-175.64322	-536.46173	1412.2335	-494.83246	-491.85635	1414.1042	-504.51242
222	2.21	-73.828644	1645.7339	-330.18091	-65.701096	1452.6863	-136.14011	-66.875793	1399.6765	-274.02982	-73.923721	1253.9283	-315.22513	-181.77432	1469.8246	-183.84415	-357.65268	1449.552	-195.95923	-476.97235	1352.7933	-181.62016	-454.30029	1426.017	-272.22131	-477.08932	1401.2953	-412.35806	-535.7522	1428.0006	-405.45175	-510.54465	1416.4646	-501.22	53.335011	1460.0619	-173.4037	212.85381	1441.5494	-188.01863	347.83383	1340.371	-183.03671	299.93463	1419.3538	-264.58548	292.73999	1394.7208	-410.64777	353.17392	1431.3242	-409.66324	320.47342	1429.8762	-500.89346	-193.46959	965.35333	-305.75528	71.917656	994.36456	-282.68463	-132.33948	987.08307	-157.7254	-21.690542	987.93048	-145.30598	-215.59543	607.36499	-276.81375	-203.0797	501.93787	-240.84425	-161.45613	474.42169	-279.24936	-181.35251	93.525291	-174.17453	-134.58652	68.588097	-111.93978	-145.188	49.368462	-372.31686	115.9193	683.85913	-271.17392	93.305084	502.63382	-249.67807	41.622887	477.68451	-295.18863	88.365707	104.53871	-188.89827	40.007782	63.53072	-119.34518	52.202923	47.188282	-383.0737	118.48777	40.312401	-336.86166	3.1260109	121.44241	-195.67416	-210.29561	43.627579	-323.35999	-101.55548	127.07887	-197.46999	87.973419	766.94226	-334.79404	44.005688	640.22107	-324.97269	-10.762937	490.9707	-240.35159	-207.48064	766.43512	-332.52936	-158.40891	631.67444	-323.72934	-107.41997	488.12759	-226.21158	-8.1054382	1285.5895	-86.108253	267.59259	1424.308	-148.17108	134.35464	1459.114	-162.48582	81.138321	1442.6295	-122.03593	76.439117	1447.325	-228.09209	358.31885	1422.1045	-176.52757	344.84805	1426.0601	-494.50235	357.05673	1420.3346	-454.61972	298.77087	1422.3174	-505.88031	-210.18556	1457.0696	-231.78676	-216.10587	1452.5223	-138.10063	-300.67188	1465.1198	-156.45477	-412.56815	1438.8002	-150.42685	-494.983	1433.2472	-175.63902	-536.50006	1412.2717	-494.83017	-491.87766	1414.1541	-504.52554
